<svg xmlns="http://www.w3.org/2000/svg" width="475" height="113">
         <defs>
            <style type="text/css">
               @namespace "http://www.w3.org/2000/svg";
               .line                 {fill: none; stroke: #1F1F1F;}
               .bold-line            {stroke: #0A0A0A; shape-rendering: crispEdges; stroke-width:
               2; }
               .thin-line            {stroke: #0F0F0F; shape-rendering: crispEdges}
               .filled               {fill: #1F1F1F; stroke: none;}
               text.terminal         {font-family: Verdana, Sans-serif;
               font-size: 12px;
               fill: #0A0A0A;
               font-weight: bold;
               }
               text.nonterminal      {font-family: Verdana, Sans-serif; font-style: italic;
               font-size: 12px;
               fill: #0D0D0D;
               }
               text.regexp           {font-family: Verdana, Sans-serif;
               font-size: 12px;
               fill: #0F0F0F;
               }
               rect, circle, polygon {fill: #1F1F1F; stroke: #1F1F1F;}
               rect.terminal         {fill: #CCCCCC; stroke: #1F1F1F;}
               rect.nonterminal      {fill: #E3E3E3; stroke: #1F1F1F;}
               rect.text             {fill: none; stroke: none;}
               polygon.regexp        {fill: #EFEFEF; stroke: #1F1F1F;}

            </style>
         </defs>

         <polygon points="9 17 1 13 1 21"/>
         <polygon points="17 17 9 13 9 21"/>
         <rect x="31" y="3" width="68" height="32" rx="10"/>
         <rect x="29" y="1" width="68" height="32" class="terminal" rx="10"/>
         <text class="terminal" x="39" y="21">LINES(</text><a xmlns:xlink="http://www.w3.org/1999/xlink" xlink:href="#name" xlink:title="name">
            <rect x="139" y="35" width="56" height="32"/>
            <rect x="137" y="33" width="56" height="32" class="nonterminal"/>
            <text class="nonterminal" x="147" y="53">name</text></a><rect x="255" y="35" width="24" height="32" rx="10"/>
         <rect x="253" y="33" width="24" height="32" class="terminal" rx="10"/>
         <text class="terminal" x="263" y="53">,</text>
         <rect x="299" y="35" width="82" height="32" rx="10"/>
         <rect x="297" y="33" width="82" height="32" class="terminal" rx="10"/>
         <text class="terminal" x="307" y="53">"Normal"</text>
         <rect x="255" y="79" width="24" height="32" rx="10"/>
         <rect x="253" y="77" width="24" height="32" class="terminal" rx="10"/>
         <text class="terminal" x="263" y="97">,</text>
         <rect x="299" y="79" width="74" height="32" rx="10"/>
         <rect x="297" y="77" width="74" height="32" class="terminal" rx="10"/>
         <text class="terminal" x="307" y="97">"Count"</text>
         <rect x="421" y="3" width="26" height="32" rx="10"/>
         <rect x="419" y="1" width="26" height="32" class="terminal" rx="10"/>
         <text class="terminal" x="429" y="21">)</text>
         <path class="line" d="m17 17 h2 m0 0 h10 m68 0 h10 m20 0 h10 m0 0 h66 m-96 0 h20 m76 0 h20 m-116 0 q10 0 10 10 m96 0 q0 -10 10 -10 m-106 10 v12 m96 0 v-12 m-96 12 q0 10 10 10 m76 0 q10 0 10 -10 m-86 10 h10 m56 0 h10 m40 -32 h10 m0 0 h136 m-166 0 h20 m146 0 h20 m-186 0 q10 0 10 10 m166 0 q0 -10 10 -10 m-176 10 v12 m166 0 v-12 m-166 12 q0 10 10 10 m146 0 q10 0 10 -10 m-156 10 h10 m24 0 h10 m0 0 h10 m82 0 h10 m-156 -10 v20 m166 0 v-20 m-166 20 v24 m166 0 v-24 m-166 24 q0 10 10 10 m146 0 q10 0 10 -10 m-156 10 h10 m24 0 h10 m0 0 h10 m74 0 h10 m0 0 h8 m20 -76 h10 m26 0 h10 m3 0 h-3"/>
         <polygon points="465 17 473 13 473 21"/>
         <polygon points="465 17 457 13 457 21"/>
</svg>