<svg xmlns="http://www.w3.org/2000/svg" width="511" height="69">
         <defs>
            <style type="text/css">
               @namespace "http://www.w3.org/2000/svg";
               .line                 {fill: none; stroke: #1F1F1F;}
               .bold-line            {stroke: #0A0A0A; shape-rendering: crispEdges; stroke-width:
               2; }
               .thin-line            {stroke: #0F0F0F; shape-rendering: crispEdges}
               .filled               {fill: #1F1F1F; stroke: none;}
               text.terminal         {font-family: Verdana, Sans-serif;
               font-size: 12px;
               fill: #0A0A0A;
               font-weight: bold;
               }
               text.nonterminal      {font-family: Verdana, Sans-serif; font-style: italic;
               font-size: 12px;
               fill: #0D0D0D;
               }
               text.regexp           {font-family: Verdana, Sans-serif;
               font-size: 12px;
               fill: #0F0F0F;
               }
               rect, circle, polygon {fill: #1F1F1F; stroke: #1F1F1F;}
               rect.terminal         {fill: #CCCCCC; stroke: #1F1F1F;}
               rect.nonterminal      {fill: #E3E3E3; stroke: #1F1F1F;}
               rect.text             {fill: none; stroke: none;}
               polygon.regexp        {fill: #EFEFEF; stroke: #1F1F1F;}

            </style>
         </defs>

         <polygon points="9 17 1 13 1 21"/>
         <polygon points="17 17 9 13 9 21"/>
         <rect x="31" y="3" width="58" height="32" rx="10"/>
         <rect x="29" y="1" width="58" height="32" class="terminal" rx="10"/>
         <text class="terminal" x="39" y="21">LEFT(</text><a xmlns:xlink="http://www.w3.org/1999/xlink" xlink:href="#string" xlink:title="string">
            <rect x="109" y="3" width="56" height="32"/>
            <rect x="107" y="1" width="56" height="32" class="nonterminal"/>
            <text class="nonterminal" x="117" y="21">string</text></a><rect x="185" y="3" width="24" height="32" rx="10"/>
         <rect x="183" y="1" width="24" height="32" class="terminal" rx="10"/>
         <text class="terminal" x="193" y="21">,</text><a xmlns:xlink="http://www.w3.org/1999/xlink" xlink:href="#length" xlink:title="length">
            <rect x="229" y="3" width="60" height="32"/>
            <rect x="227" y="1" width="60" height="32" class="nonterminal"/>
            <text class="nonterminal" x="237" y="21">length</text></a><rect x="329" y="35" width="24" height="32" rx="10"/>
         <rect x="327" y="33" width="24" height="32" class="terminal" rx="10"/>
         <text class="terminal" x="337" y="53">,</text><a xmlns:xlink="http://www.w3.org/1999/xlink" xlink:href="#pad" xlink:title="pad">
            <rect x="373" y="35" width="44" height="32"/>
            <rect x="371" y="33" width="44" height="32" class="nonterminal"/>
            <text class="nonterminal" x="381" y="53">pad</text></a><rect x="457" y="3" width="26" height="32" rx="10"/>
         <rect x="455" y="1" width="26" height="32" class="terminal" rx="10"/>
         <text class="terminal" x="465" y="21">)</text>
         <path class="line" d="m17 17 h2 m0 0 h10 m58 0 h10 m0 0 h10 m56 0 h10 m0 0 h10 m24 0 h10 m0 0 h10 m60 0 h10 m20 0 h10 m0 0 h98 m-128 0 h20 m108 0 h20 m-148 0 q10 0 10 10 m128 0 q0 -10 10 -10 m-138 10 v12 m128 0 v-12 m-128 12 q0 10 10 10 m108 0 q10 0 10 -10 m-118 10 h10 m24 0 h10 m0 0 h10 m44 0 h10 m20 -32 h10 m26 0 h10 m3 0 h-3"/>
         <polygon points="501 17 509 13 509 21"/>
         <polygon points="501 17 493 13 493 21"/>
</svg>