<svg xmlns="http://www.w3.org/2000/svg" width="629" height="69">
         <defs>
            <style type="text/css">
               @namespace "http://www.w3.org/2000/svg";
               .line                 {fill: none; stroke: #1F1F1F;}
               .bold-line            {stroke: #0A0A0A; shape-rendering: crispEdges; stroke-width:
               2; }
               .thin-line            {stroke: #0F0F0F; shape-rendering: crispEdges}
               .filled               {fill: #1F1F1F; stroke: none;}
               text.terminal         {font-family: Verdana, Sans-serif;
               font-size: 12px;
               fill: #0A0A0A;
               font-weight: bold;
               }
               text.nonterminal      {font-family: Verdana, Sans-serif; font-style: italic;
               font-size: 12px;
               fill: #0D0D0D;
               }
               text.regexp           {font-family: Verdana, Sans-serif;
               font-size: 12px;
               fill: #0F0F0F;
               }
               rect, circle, polygon {fill: #1F1F1F; stroke: #1F1F1F;}
               rect.terminal         {fill: #CCCCCC; stroke: #1F1F1F;}
               rect.nonterminal      {fill: #E3E3E3; stroke: #1F1F1F;}
               rect.text             {fill: none; stroke: none;}
               polygon.regexp        {fill: #EFEFEF; stroke: #1F1F1F;}

            </style>
         </defs>

         <polygon points="9 17 1 13 1 21"/>
         <polygon points="17 17 9 13 9 21"/>
         <rect x="31" y="3" width="94" height="32" rx="10"/>
         <rect x="29" y="1" width="94" height="32" class="terminal" rx="10"/>
         <text class="terminal" x="39" y="21">CHAROUT(</text><a xmlns:xlink="http://www.w3.org/1999/xlink" xlink:href="#name" xlink:title="name">
            <rect x="165" y="35" width="56" height="32"/>
            <rect x="163" y="33" width="56" height="32" class="nonterminal"/>
            <text class="nonterminal" x="173" y="53">name</text></a><rect x="261" y="3" width="24" height="32" rx="10"/>
         <rect x="259" y="1" width="24" height="32" class="terminal" rx="10"/>
         <text class="terminal" x="269" y="21">,</text><a xmlns:xlink="http://www.w3.org/1999/xlink" xlink:href="#string" xlink:title="string">
            <rect x="325" y="35" width="56" height="32"/>
            <rect x="323" y="33" width="56" height="32" class="nonterminal"/>
            <text class="nonterminal" x="333" y="53">string</text></a><rect x="441" y="35" width="24" height="32" rx="10"/>
         <rect x="439" y="33" width="24" height="32" class="terminal" rx="10"/>
         <text class="terminal" x="449" y="53">,</text><a xmlns:xlink="http://www.w3.org/1999/xlink" xlink:href="#start" xlink:title="start">
            <rect x="485" y="35" width="50" height="32"/>
            <rect x="483" y="33" width="50" height="32" class="nonterminal"/>
            <text class="nonterminal" x="493" y="53">start</text></a><rect x="575" y="3" width="26" height="32" rx="10"/>
         <rect x="573" y="1" width="26" height="32" class="terminal" rx="10"/>
         <text class="terminal" x="583" y="21">)</text>
         <path class="line" d="m17 17 h2 m0 0 h10 m94 0 h10 m20 0 h10 m0 0 h66 m-96 0 h20 m76 0 h20 m-116 0 q10 0 10 10 m96 0 q0 -10 10 -10 m-106 10 v12 m96 0 v-12 m-96 12 q0 10 10 10 m76 0 q10 0 10 -10 m-86 10 h10 m56 0 h10 m20 -32 h10 m24 0 h10 m20 0 h10 m0 0 h66 m-96 0 h20 m76 0 h20 m-116 0 q10 0 10 10 m96 0 q0 -10 10 -10 m-106 10 v12 m96 0 v-12 m-96 12 q0 10 10 10 m76 0 q10 0 10 -10 m-86 10 h10 m56 0 h10 m40 -32 h10 m0 0 h104 m-134 0 h20 m114 0 h20 m-154 0 q10 0 10 10 m134 0 q0 -10 10 -10 m-144 10 v12 m134 0 v-12 m-134 12 q0 10 10 10 m114 0 q10 0 10 -10 m-124 10 h10 m24 0 h10 m0 0 h10 m50 0 h10 m20 -32 h10 m26 0 h10 m3 0 h-3"/>
         <polygon points="619 17 627 13 627 21"/>
         <polygon points="619 17 611 13 611 21"/>
</svg>