<svg xmlns="http://www.w3.org/2000/svg" width="555" height="37">
         <defs>
            <style type="text/css">
               @namespace "http://www.w3.org/2000/svg";
               .line                 {fill: none; stroke: #1F1F1F;}
               .bold-line            {stroke: #0A0A0A; shape-rendering: crispEdges; stroke-width:
               2; }
               .thin-line            {stroke: #0F0F0F; shape-rendering: crispEdges}
               .filled               {fill: #1F1F1F; stroke: none;}
               text.terminal         {font-family: Verdana, Sans-serif;
               font-size: 12px;
               fill: #0A0A0A;
               font-weight: bold;
               }
               text.nonterminal      {font-family: Verdana, Sans-serif; font-style: italic;
               font-size: 12px;
               fill: #0D0D0D;
               }
               text.regexp           {font-family: Verdana, Sans-serif;
               font-size: 12px;
               fill: #0F0F0F;
               }
               rect, circle, polygon {fill: #1F1F1F; stroke: #1F1F1F;}
               rect.terminal         {fill: #CCCCCC; stroke: #1F1F1F;}
               rect.nonterminal      {fill: #E3E3E3; stroke: #1F1F1F;}
               rect.text             {fill: none; stroke: none;}
               polygon.regexp        {fill: #EFEFEF; stroke: #1F1F1F;}

            </style>
         </defs>

         <polygon points="9 17 1 13 1 21"/>
         <polygon points="17 17 9 13 9 21"/>
         <rect x="31" y="3" width="90" height="32" rx="10"/>
         <rect x="29" y="1" width="90" height="32" class="terminal" rx="10"/>
         <text class="terminal" x="39" y="21">UNICODE(</text><a xmlns:xlink="http://www.w3.org/1999/xlink" xlink:href="#code" xlink:title="code">
            <rect x="141" y="3" width="50" height="32"/>
            <rect x="139" y="1" width="50" height="32" class="nonterminal"/>
            <text class="nonterminal" x="149" y="21">code</text></a><rect x="211" y="3" width="24" height="32" rx="10"/>
         <rect x="209" y="1" width="24" height="32" class="terminal" rx="10"/>
         <text class="terminal" x="219" y="21">,</text>
         <rect x="255" y="3" width="106" height="32" rx="10"/>
         <rect x="253" y="1" width="106" height="32" class="terminal" rx="10"/>
         <text class="terminal" x="263" y="21">"PROPERTY"</text>
         <rect x="381" y="3" width="24" height="32" rx="10"/>
         <rect x="379" y="1" width="24" height="32" class="terminal" rx="10"/>
         <text class="terminal" x="389" y="21">,</text><a xmlns:xlink="http://www.w3.org/1999/xlink" xlink:href="#name" xlink:title="name">
            <rect x="425" y="3" width="56" height="32"/>
            <rect x="423" y="1" width="56" height="32" class="nonterminal"/>
            <text class="nonterminal" x="433" y="21">name</text></a><rect x="501" y="3" width="26" height="32" rx="10"/>
         <rect x="499" y="1" width="26" height="32" class="terminal" rx="10"/>
         <text class="terminal" x="509" y="21">)</text>
         <path class="line" d="m17 17 h2 m0 0 h10 m90 0 h10 m0 0 h10 m50 0 h10 m0 0 h10 m24 0 h10 m0 0 h10 m106 0 h10 m0 0 h10 m24 0 h10 m0 0 h10 m56 0 h10 m0 0 h10 m26 0 h10 m3 0 h-3"/>
         <polygon points="545 17 553 13 553 21"/>
         <polygon points="545 17 537 13 537 21"/>
</svg>