<svg xmlns="http://www.w3.org/2000/svg" width="829" height="133">
         <defs>
            <style type="text/css">
               @namespace "http://www.w3.org/2000/svg";
               .line                 {fill: none; stroke: #1F1F1F;}
               .bold-line            {stroke: #0A0A0A; shape-rendering: crispEdges; stroke-width:
               2; }
               .thin-line            {stroke: #0F0F0F; shape-rendering: crispEdges}
               .filled               {fill: #1F1F1F; stroke: none;}
               text.terminal         {font-family: Verdana, Sans-serif;
               font-size: 12px;
               fill: #0A0A0A;
               font-weight: bold;
               }
               text.nonterminal      {font-family: Verdana, Sans-serif; font-style: italic;
               font-size: 12px;
               fill: #0D0D0D;
               }
               text.regexp           {font-family: Verdana, Sans-serif;
               font-size: 12px;
               fill: #0F0F0F;
               }
               rect, circle, polygon {fill: #1F1F1F; stroke: #1F1F1F;}
               rect.terminal         {fill: #CCCCCC; stroke: #1F1F1F;}
               rect.nonterminal      {fill: #E3E3E3; stroke: #1F1F1F;}
               rect.text             {fill: none; stroke: none;}
               polygon.regexp        {fill: #EFEFEF; stroke: #1F1F1F;}

            </style>
         </defs>

         <polygon points="9 17 1 13 1 21"/>
         <polygon points="17 17 9 13 9 21"/>
         <rect x="31" y="3" width="62" height="32" rx="10"/>
         <rect x="29" y="1" width="62" height="32" class="terminal" rx="10"/>
         <text class="terminal" x="39" y="21">UTF8(</text><a xmlns:xlink="http://www.w3.org/1999/xlink" xlink:href="#string" xlink:title="string">
            <rect x="113" y="3" width="56" height="32"/>
            <rect x="111" y="1" width="56" height="32" class="nonterminal"/>
            <text class="nonterminal" x="121" y="21">string</text></a><rect x="209" y="35" width="24" height="32" rx="10"/>
         <rect x="207" y="33" width="24" height="32" class="terminal" rx="10"/>
         <text class="terminal" x="217" y="53">,</text><a xmlns:xlink="http://www.w3.org/1999/xlink" xlink:href="#format" xlink:title="format">
            <rect x="273" y="67" width="62" height="32"/>
            <rect x="271" y="65" width="62" height="32" class="nonterminal"/>
            <text class="nonterminal" x="281" y="85">format</text></a><rect x="395" y="67" width="24" height="32" rx="10"/>
         <rect x="393" y="65" width="24" height="32" class="terminal" rx="10"/>
         <text class="terminal" x="403" y="85">,</text><a xmlns:xlink="http://www.w3.org/1999/xlink" xlink:href="#target" xlink:title="target">
            <rect x="439" y="67" width="58" height="32"/>
            <rect x="437" y="65" width="58" height="32" class="nonterminal"/>
            <text class="nonterminal" x="447" y="85">target</text></a><rect x="537" y="99" width="24" height="32" rx="10"/>
         <rect x="535" y="97" width="24" height="32" class="terminal" rx="10"/>
         <text class="terminal" x="545" y="117">,</text><a xmlns:xlink="http://www.w3.org/1999/xlink" xlink:href="#error_handling" xlink:title="error_handling">
            <rect x="581" y="99" width="114" height="32"/>
            <rect x="579" y="97" width="114" height="32" class="nonterminal"/>
            <text class="nonterminal" x="589" y="117">error_handling</text></a><rect x="775" y="3" width="26" height="32" rx="10"/>
         <rect x="773" y="1" width="26" height="32" class="terminal" rx="10"/>
         <text class="terminal" x="783" y="21">)</text>
         <path class="line" d="m17 17 h2 m0 0 h10 m62 0 h10 m0 0 h10 m56 0 h10 m20 0 h10 m0 0 h536 m-566 0 h20 m546 0 h20 m-586 0 q10 0 10 10 m566 0 q0 -10 10 -10 m-576 10 v12 m566 0 v-12 m-566 12 q0 10 10 10 m546 0 q10 0 10 -10 m-556 10 h10 m24 0 h10 m20 0 h10 m0 0 h72 m-102 0 h20 m82 0 h20 m-122 0 q10 0 10 10 m102 0 q0 -10 10 -10 m-112 10 v12 m102 0 v-12 m-102 12 q0 10 10 10 m82 0 q10 0 10 -10 m-92 10 h10 m62 0 h10 m40 -32 h10 m0 0 h330 m-360 0 h20 m340 0 h20 m-380 0 q10 0 10 10 m360 0 q0 -10 10 -10 m-370 10 v12 m360 0 v-12 m-360 12 q0 10 10 10 m340 0 q10 0 10 -10 m-350 10 h10 m24 0 h10 m0 0 h10 m58 0 h10 m20 0 h10 m0 0 h168 m-198 0 h20 m178 0 h20 m-218 0 q10 0 10 10 m198 0 q0 -10 10 -10 m-208 10 v12 m198 0 v-12 m-198 12 q0 10 10 10 m178 0 q10 0 10 -10 m-188 10 h10 m24 0 h10 m0 0 h10 m114 0 h10 m60 -96 h10 m26 0 h10 m3 0 h-3"/>
         <polygon points="819 17 827 13 827 21"/>
         <polygon points="819 17 811 13 811 21"/>
</svg>