<svg xmlns="http://www.w3.org/2000/svg" width="431" height="69">
         <defs>
            <style type="text/css">
               @namespace "http://www.w3.org/2000/svg";
               .line                 {fill: none; stroke: #1F1F1F;}
               .bold-line            {stroke: #0A0A0A; shape-rendering: crispEdges; stroke-width:
               2; }
               .thin-line            {stroke: #0F0F0F; shape-rendering: crispEdges}
               .filled               {fill: #1F1F1F; stroke: none;}
               text.terminal         {font-family: Verdana, Sans-serif;
               font-size: 12px;
               fill: #0A0A0A;
               font-weight: bold;
               }
               text.nonterminal      {font-family: Verdana, Sans-serif; font-style: italic;
               font-size: 12px;
               fill: #0D0D0D;
               }
               text.regexp           {font-family: Verdana, Sans-serif;
               font-size: 12px;
               fill: #0F0F0F;
               }
               rect, circle, polygon {fill: #1F1F1F; stroke: #1F1F1F;}
               rect.terminal         {fill: #CCCCCC; stroke: #1F1F1F;}
               rect.nonterminal      {fill: #E3E3E3; stroke: #1F1F1F;}
               rect.text             {fill: none; stroke: none;}
               polygon.regexp        {fill: #EFEFEF; stroke: #1F1F1F;}

            </style>
         </defs>

         <polygon points="9 17 1 13 1 21"/>
         <polygon points="17 17 9 13 9 21"/>
         <rect x="31" y="3" width="98" height="32" rx="10"/>
         <rect x="29" y="1" width="98" height="32" class="terminal" rx="10"/>
         <text class="terminal" x="39" y="21">DATATYPE(</text><a xmlns:xlink="http://www.w3.org/1999/xlink" xlink:href="#string" xlink:title="string">
            <rect x="149" y="3" width="56" height="32"/>
            <rect x="147" y="1" width="56" height="32" class="nonterminal"/>
            <text class="nonterminal" x="157" y="21">string</text></a><rect x="245" y="35" width="24" height="32" rx="10"/>
         <rect x="243" y="33" width="24" height="32" class="terminal" rx="10"/>
         <text class="terminal" x="253" y="53">,</text><a xmlns:xlink="http://www.w3.org/1999/xlink" xlink:href="#type" xlink:title="type">
            <rect x="289" y="35" width="48" height="32"/>
            <rect x="287" y="33" width="48" height="32" class="nonterminal"/>
            <text class="nonterminal" x="297" y="53">type</text></a><rect x="377" y="3" width="26" height="32" rx="10"/>
         <rect x="375" y="1" width="26" height="32" class="terminal" rx="10"/>
         <text class="terminal" x="385" y="21">)</text>
         <path class="line" d="m17 17 h2 m0 0 h10 m98 0 h10 m0 0 h10 m56 0 h10 m20 0 h10 m0 0 h102 m-132 0 h20 m112 0 h20 m-152 0 q10 0 10 10 m132 0 q0 -10 10 -10 m-142 10 v12 m132 0 v-12 m-132 12 q0 10 10 10 m112 0 q10 0 10 -10 m-122 10 h10 m24 0 h10 m0 0 h10 m48 0 h10 m20 -32 h10 m26 0 h10 m3 0 h-3"/>
         <polygon points="421 17 429 13 429 21"/>
         <polygon points="421 17 413 13 413 21"/>
</svg>