<svg xmlns="http://www.w3.org/2000/svg" width="615" height="69">
         <defs>
            <style type="text/css">
               @namespace "http://www.w3.org/2000/svg";
               .line                 {fill: none; stroke: #1F1F1F;}
               .bold-line            {stroke: #0A0A0A; shape-rendering: crispEdges; stroke-width:
               2; }
               .thin-line            {stroke: #0F0F0F; shape-rendering: crispEdges}
               .filled               {fill: #1F1F1F; stroke: none;}
               text.terminal         {font-family: Verdana, Sans-serif;
               font-size: 12px;
               fill: #0A0A0A;
               font-weight: bold;
               }
               text.nonterminal      {font-family: Verdana, Sans-serif; font-style: italic;
               font-size: 12px;
               fill: #0D0D0D;
               }
               text.regexp           {font-family: Verdana, Sans-serif;
               font-size: 12px;
               fill: #0F0F0F;
               }
               rect, circle, polygon {fill: #1F1F1F; stroke: #1F1F1F;}
               rect.terminal         {fill: #CCCCCC; stroke: #1F1F1F;}
               rect.nonterminal      {fill: #E3E3E3; stroke: #1F1F1F;}
               rect.text             {fill: none; stroke: none;}
               polygon.regexp        {fill: #EFEFEF; stroke: #1F1F1F;}

            </style>
         </defs>

         <polygon points="9 17 1 13 1 21"/>
         <polygon points="17 17 9 13 9 21"/>
         <rect x="31" y="3" width="88" height="32" rx="10"/>
         <rect x="29" y="1" width="88" height="32" class="terminal" rx="10"/>
         <text class="terminal" x="39" y="21">LINEOUT(</text><a xmlns:xlink="http://www.w3.org/1999/xlink" xlink:href="#name" xlink:title="name">
            <rect x="159" y="35" width="56" height="32"/>
            <rect x="157" y="33" width="56" height="32" class="nonterminal"/>
            <text class="nonterminal" x="167" y="53">name</text></a><rect x="255" y="3" width="24" height="32" rx="10"/>
         <rect x="253" y="1" width="24" height="32" class="terminal" rx="10"/>
         <text class="terminal" x="263" y="21">,</text><a xmlns:xlink="http://www.w3.org/1999/xlink" xlink:href="#string" xlink:title="string">
            <rect x="319" y="35" width="56" height="32"/>
            <rect x="317" y="33" width="56" height="32" class="nonterminal"/>
            <text class="nonterminal" x="327" y="53">string</text></a><rect x="435" y="35" width="24" height="32" rx="10"/>
         <rect x="433" y="33" width="24" height="32" class="terminal" rx="10"/>
         <text class="terminal" x="443" y="53">,</text><a xmlns:xlink="http://www.w3.org/1999/xlink" xlink:href="#line" xlink:title="line">
            <rect x="479" y="35" width="42" height="32"/>
            <rect x="477" y="33" width="42" height="32" class="nonterminal"/>
            <text class="nonterminal" x="487" y="53">line</text></a><rect x="561" y="3" width="26" height="32" rx="10"/>
         <rect x="559" y="1" width="26" height="32" class="terminal" rx="10"/>
         <text class="terminal" x="569" y="21">)</text>
         <path class="line" d="m17 17 h2 m0 0 h10 m88 0 h10 m20 0 h10 m0 0 h66 m-96 0 h20 m76 0 h20 m-116 0 q10 0 10 10 m96 0 q0 -10 10 -10 m-106 10 v12 m96 0 v-12 m-96 12 q0 10 10 10 m76 0 q10 0 10 -10 m-86 10 h10 m56 0 h10 m20 -32 h10 m24 0 h10 m20 0 h10 m0 0 h66 m-96 0 h20 m76 0 h20 m-116 0 q10 0 10 10 m96 0 q0 -10 10 -10 m-106 10 v12 m96 0 v-12 m-96 12 q0 10 10 10 m76 0 q10 0 10 -10 m-86 10 h10 m56 0 h10 m40 -32 h10 m0 0 h96 m-126 0 h20 m106 0 h20 m-146 0 q10 0 10 10 m126 0 q0 -10 10 -10 m-136 10 v12 m126 0 v-12 m-126 12 q0 10 10 10 m106 0 q10 0 10 -10 m-116 10 h10 m24 0 h10 m0 0 h10 m42 0 h10 m20 -32 h10 m26 0 h10 m3 0 h-3"/>
         <polygon points="605 17 613 13 613 21"/>
         <polygon points="605 17 597 13 597 21"/>
</svg>