<svg xmlns="http://www.w3.org/2000/svg" width="397" height="201">
         <defs>
            <style type="text/css">
               @namespace "http://www.w3.org/2000/svg";
               .line                 {fill: none; stroke: #1F1F1F;}
               .bold-line            {stroke: #0A0A0A; shape-rendering: crispEdges; stroke-width:
               2; }
               .thin-line            {stroke: #0F0F0F; shape-rendering: crispEdges}
               .filled               {fill: #1F1F1F; stroke: none;}
               text.terminal         {font-family: Verdana, Sans-serif;
               font-size: 12px;
               fill: #0A0A0A;
               font-weight: bold;
               }
               text.nonterminal      {font-family: Verdana, Sans-serif; font-style: italic;
               font-size: 12px;
               fill: #0D0D0D;
               }
               text.regexp           {font-family: Verdana, Sans-serif;
               font-size: 12px;
               fill: #0F0F0F;
               }
               rect, circle, polygon {fill: #1F1F1F; stroke: #1F1F1F;}
               rect.terminal         {fill: #CCCCCC; stroke: #1F1F1F;}
               rect.nonterminal      {fill: #E3E3E3; stroke: #1F1F1F;}
               rect.text             {fill: none; stroke: none;}
               polygon.regexp        {fill: #EFEFEF; stroke: #1F1F1F;}

            </style>
         </defs>

         <polygon points="9 17 1 13 1 21"/>
         <polygon points="17 17 9 13 9 21"/>
         <rect x="31" y="3" width="62" height="32" rx="10"/>
         <rect x="29" y="1" width="62" height="32" class="terminal" rx="10"/>
         <text class="terminal" x="39" y="21">Query</text>
         <rect x="113" y="3" width="94" height="32" rx="10"/>
         <rect x="111" y="1" width="94" height="32" class="terminal" rx="10"/>
         <text class="terminal" x="121" y="21">ENCODING</text>
         <rect x="247" y="35" width="58" height="32" rx="10"/>
         <rect x="245" y="33" width="58" height="32" class="terminal" rx="10"/>
         <text class="terminal" x="255" y="53">NAME</text>
         <rect x="247" y="79" width="72" height="32" rx="10"/>
         <rect x="245" y="77" width="72" height="32" class="terminal" rx="10"/>
         <text class="terminal" x="255" y="97">TARGET</text>
         <rect x="247" y="123" width="66" height="32" rx="10"/>
         <rect x="245" y="121" width="66" height="32" class="terminal" rx="10"/>
         <text class="terminal" x="255" y="141">ERROR</text>
         <rect x="247" y="167" width="102" height="32" rx="10"/>
         <rect x="245" y="165" width="102" height="32" class="terminal" rx="10"/>
         <text class="terminal" x="255" y="185">LASTERROR</text>
         <path class="line" d="m17 17 h2 m0 0 h10 m62 0 h10 m0 0 h10 m94 0 h10 m20 0 h10 m0 0 h112 m-142 0 h20 m122 0 h20 m-162 0 q10 0 10 10 m142 0 q0 -10 10 -10 m-152 10 v12 m142 0 v-12 m-142 12 q0 10 10 10 m122 0 q10 0 10 -10 m-132 10 h10 m58 0 h10 m0 0 h44 m-132 -10 v20 m142 0 v-20 m-142 20 v24 m142 0 v-24 m-142 24 q0 10 10 10 m122 0 q10 0 10 -10 m-132 10 h10 m72 0 h10 m0 0 h30 m-132 -10 v20 m142 0 v-20 m-142 20 v24 m142 0 v-24 m-142 24 q0 10 10 10 m122 0 q10 0 10 -10 m-132 10 h10 m66 0 h10 m0 0 h36 m-132 -10 v20 m142 0 v-20 m-142 20 v24 m142 0 v-24 m-142 24 q0 10 10 10 m122 0 q10 0 10 -10 m-132 10 h10 m102 0 h10 m23 -164 h-3"/>
         <polygon points="387 17 395 13 395 21"/>
         <polygon points="387 17 379 13 379 21"/>
</svg>