<svg xmlns="http://www.w3.org/2000/svg" width="405" height="37">
         <defs>
            <style type="text/css">
               @namespace "http://www.w3.org/2000/svg";
               .line                 {fill: none; stroke: #1F1F1F;}
               .bold-line            {stroke: #0A0A0A; shape-rendering: crispEdges; stroke-width:
               2; }
               .thin-line            {stroke: #0F0F0F; shape-rendering: crispEdges}
               .filled               {fill: #1F1F1F; stroke: none;}
               text.terminal         {font-family: Verdana, Sans-serif;
               font-size: 12px;
               fill: #0A0A0A;
               font-weight: bold;
               }
               text.nonterminal      {font-family: Verdana, Sans-serif; font-style: italic;
               font-size: 12px;
               fill: #0D0D0D;
               }
               text.regexp           {font-family: Verdana, Sans-serif;
               font-size: 12px;
               fill: #0F0F0F;
               }
               rect, circle, polygon {fill: #1F1F1F; stroke: #1F1F1F;}
               rect.terminal         {fill: #CCCCCC; stroke: #1F1F1F;}
               rect.nonterminal      {fill: #E3E3E3; stroke: #1F1F1F;}
               rect.text             {fill: none; stroke: none;}
               polygon.regexp        {fill: #EFEFEF; stroke: #1F1F1F;}

            </style>
         </defs>

         <polygon points="9 17 1 13 1 21"/>
         <polygon points="17 17 9 13 9 21"/>
         <rect x="31" y="3" width="90" height="32" rx="10"/>
         <rect x="29" y="1" width="90" height="32" class="terminal" rx="10"/>
         <text class="terminal" x="39" y="21">UNICODE(</text><a xmlns:xlink="http://www.w3.org/1999/xlink" xlink:href="#string" xlink:title="string">
            <rect x="141" y="3" width="56" height="32"/>
            <rect x="139" y="1" width="56" height="32" class="nonterminal"/>
            <text class="nonterminal" x="149" y="21">string</text></a><rect x="217" y="3" width="24" height="32" rx="10"/>
         <rect x="215" y="1" width="24" height="32" class="terminal" rx="10"/>
         <text class="terminal" x="225" y="21">,</text><a xmlns:xlink="http://www.w3.org/1999/xlink" xlink:href="#function" xlink:title="function">
            <rect x="261" y="3" width="70" height="32"/>
            <rect x="259" y="1" width="70" height="32" class="nonterminal"/>
            <text class="nonterminal" x="269" y="21">function</text></a><rect x="351" y="3" width="26" height="32" rx="10"/>
         <rect x="349" y="1" width="26" height="32" class="terminal" rx="10"/>
         <text class="terminal" x="359" y="21">)</text>
         <path class="line" d="m17 17 h2 m0 0 h10 m90 0 h10 m0 0 h10 m56 0 h10 m0 0 h10 m24 0 h10 m0 0 h10 m70 0 h10 m0 0 h10 m26 0 h10 m3 0 h-3"/>
         <polygon points="395 17 403 13 403 21"/>
         <polygon points="395 17 387 13 387 21"/>
</svg>