<svg xmlns="http://www.w3.org/2000/svg" width="623" height="69">
         <defs>
            <style type="text/css">
               @namespace "http://www.w3.org/2000/svg";
               .line                 {fill: none; stroke: #1F1F1F;}
               .bold-line            {stroke: #0A0A0A; shape-rendering: crispEdges; stroke-width:
               2; }
               .thin-line            {stroke: #0F0F0F; shape-rendering: crispEdges}
               .filled               {fill: #1F1F1F; stroke: none;}
               text.terminal         {font-family: Verdana, Sans-serif;
               font-size: 12px;
               fill: #0A0A0A;
               font-weight: bold;
               }
               text.nonterminal      {font-family: Verdana, Sans-serif; font-style: italic;
               font-size: 12px;
               fill: #0D0D0D;
               }
               text.regexp           {font-family: Verdana, Sans-serif;
               font-size: 12px;
               fill: #0F0F0F;
               }
               rect, circle, polygon {fill: #1F1F1F; stroke: #1F1F1F;}
               rect.terminal         {fill: #CCCCCC; stroke: #1F1F1F;}
               rect.nonterminal      {fill: #E3E3E3; stroke: #1F1F1F;}
               rect.text             {fill: none; stroke: none;}
               polygon.regexp        {fill: #EFEFEF; stroke: #1F1F1F;}

            </style>
         </defs>

         <polygon points="9 17 1 13 1 21"/>
         <polygon points="17 17 9 13 9 21"/>
         <rect x="31" y="3" width="82" height="32" rx="10"/>
         <rect x="29" y="1" width="82" height="32" class="terminal" rx="10"/>
         <text class="terminal" x="39" y="21">ENCODE(</text><a xmlns:xlink="http://www.w3.org/1999/xlink" xlink:href="#string" xlink:title="string">
            <rect x="133" y="3" width="56" height="32"/>
            <rect x="131" y="1" width="56" height="32" class="nonterminal"/>
            <text class="nonterminal" x="141" y="21">string</text></a><rect x="209" y="3" width="24" height="32" rx="10"/>
         <rect x="207" y="1" width="24" height="32" class="terminal" rx="10"/>
         <text class="terminal" x="217" y="21">,</text><a xmlns:xlink="http://www.w3.org/1999/xlink" xlink:href="#encoding" xlink:title="encoding">
            <rect x="253" y="3" width="78" height="32"/>
            <rect x="251" y="1" width="78" height="32" class="nonterminal"/>
            <text class="nonterminal" x="261" y="21">encoding</text></a><rect x="371" y="35" width="24" height="32" rx="10"/>
         <rect x="369" y="33" width="24" height="32" class="terminal" rx="10"/>
         <text class="terminal" x="379" y="53">,</text><a xmlns:xlink="http://www.w3.org/1999/xlink" xlink:href="#error_handling" xlink:title="error_handling">
            <rect x="415" y="35" width="114" height="32"/>
            <rect x="413" y="33" width="114" height="32" class="nonterminal"/>
            <text class="nonterminal" x="423" y="53">error_handling</text></a><rect x="569" y="3" width="26" height="32" rx="10"/>
         <rect x="567" y="1" width="26" height="32" class="terminal" rx="10"/>
         <text class="terminal" x="577" y="21">)</text>
         <path class="line" d="m17 17 h2 m0 0 h10 m82 0 h10 m0 0 h10 m56 0 h10 m0 0 h10 m24 0 h10 m0 0 h10 m78 0 h10 m20 0 h10 m0 0 h168 m-198 0 h20 m178 0 h20 m-218 0 q10 0 10 10 m198 0 q0 -10 10 -10 m-208 10 v12 m198 0 v-12 m-198 12 q0 10 10 10 m178 0 q10 0 10 -10 m-188 10 h10 m24 0 h10 m0 0 h10 m114 0 h10 m20 -32 h10 m26 0 h10 m3 0 h-3"/>
         <polygon points="613 17 621 13 621 21"/>
         <polygon points="613 17 605 13 605 21"/>
</svg>