<svg xmlns="http://www.w3.org/2000/svg" width="535" height="69">
         <defs>
            <style type="text/css">
               @namespace "http://www.w3.org/2000/svg";
               .line                 {fill: none; stroke: #1F1F1F;}
               .bold-line            {stroke: #0A0A0A; shape-rendering: crispEdges; stroke-width:
               2; }
               .thin-line            {stroke: #0F0F0F; shape-rendering: crispEdges}
               .filled               {fill: #1F1F1F; stroke: none;}
               text.terminal         {font-family: Verdana, Sans-serif;
               font-size: 12px;
               fill: #0A0A0A;
               font-weight: bold;
               }
               text.nonterminal      {font-family: Verdana, Sans-serif; font-style: italic;
               font-size: 12px;
               fill: #0D0D0D;
               }
               text.regexp           {font-family: Verdana, Sans-serif;
               font-size: 12px;
               fill: #0F0F0F;
               }
               rect, circle, polygon {fill: #1F1F1F; stroke: #1F1F1F;}
               rect.terminal         {fill: #CCCCCC; stroke: #1F1F1F;}
               rect.nonterminal      {fill: #E3E3E3; stroke: #1F1F1F;}
               rect.text             {fill: none; stroke: none;}
               polygon.regexp        {fill: #EFEFEF; stroke: #1F1F1F;}

            </style>
         </defs>

         <polygon points="9 17 1 13 1 21"/>
         <polygon points="17 17 9 13 9 21"/>
         <rect x="31" y="3" width="70" height="32" rx="10"/>
         <rect x="29" y="1" width="70" height="32" class="terminal" rx="10"/>
         <text class="terminal" x="39" y="21">substr(</text><a xmlns:xlink="http://www.w3.org/1999/xlink" xlink:href="#n" xlink:title="n">
            <rect x="121" y="3" width="28" height="32"/>
            <rect x="119" y="1" width="28" height="32" class="nonterminal"/>
            <text class="nonterminal" x="129" y="21">n</text></a><rect x="169" y="3" width="24" height="32" rx="10"/>
         <rect x="167" y="1" width="24" height="32" class="terminal" rx="10"/>
         <text class="terminal" x="177" y="21">,</text><a xmlns:xlink="http://www.w3.org/1999/xlink" xlink:href="#length" xlink:title="length">
            <rect x="233" y="35" width="60" height="32"/>
            <rect x="231" y="33" width="60" height="32" class="nonterminal"/>
            <text class="nonterminal" x="241" y="53">length</text></a><rect x="353" y="35" width="24" height="32" rx="10"/>
         <rect x="351" y="33" width="24" height="32" class="terminal" rx="10"/>
         <text class="terminal" x="361" y="53">,</text><a xmlns:xlink="http://www.w3.org/1999/xlink" xlink:href="#pad" xlink:title="pad">
            <rect x="397" y="35" width="44" height="32"/>
            <rect x="395" y="33" width="44" height="32" class="nonterminal"/>
            <text class="nonterminal" x="405" y="53">pad</text></a><rect x="481" y="3" width="26" height="32" rx="10"/>
         <rect x="479" y="1" width="26" height="32" class="terminal" rx="10"/>
         <text class="terminal" x="489" y="21">)</text>
         <path class="line" d="m17 17 h2 m0 0 h10 m70 0 h10 m0 0 h10 m28 0 h10 m0 0 h10 m24 0 h10 m20 0 h10 m0 0 h70 m-100 0 h20 m80 0 h20 m-120 0 q10 0 10 10 m100 0 q0 -10 10 -10 m-110 10 v12 m100 0 v-12 m-100 12 q0 10 10 10 m80 0 q10 0 10 -10 m-90 10 h10 m60 0 h10 m40 -32 h10 m0 0 h98 m-128 0 h20 m108 0 h20 m-148 0 q10 0 10 10 m128 0 q0 -10 10 -10 m-138 10 v12 m128 0 v-12 m-128 12 q0 10 10 10 m108 0 q10 0 10 -10 m-118 10 h10 m24 0 h10 m0 0 h10 m44 0 h10 m20 -32 h10 m26 0 h10 m3 0 h-3"/>
         <polygon points="525 17 533 13 533 21"/>
         <polygon points="525 17 517 13 517 21"/>
</svg>