<svg xmlns="http://www.w3.org/2000/svg" width="899" height="167">
         <defs>
            <style type="text/css">
               @namespace "http://www.w3.org/2000/svg";
               .line                 {fill: none; stroke: #1F1F1F;}
               .bold-line            {stroke: #0A0A0A; shape-rendering: crispEdges; stroke-width:
               2; }
               .thin-line            {stroke: #0F0F0F; shape-rendering: crispEdges}
               .filled               {fill: #1F1F1F; stroke: none;}
               text.terminal         {font-family: Verdana, Sans-serif;
               font-size: 12px;
               fill: #0A0A0A;
               font-weight: bold;
               }
               text.nonterminal      {font-family: Verdana, Sans-serif; font-style: italic;
               font-size: 12px;
               fill: #0D0D0D;
               }
               text.regexp           {font-family: Verdana, Sans-serif;
               font-size: 12px;
               fill: #0F0F0F;
               }
               rect, circle, polygon {fill: #1F1F1F; stroke: #1F1F1F;}
               rect.terminal         {fill: #CCCCCC; stroke: #1F1F1F;}
               rect.nonterminal      {fill: #E3E3E3; stroke: #1F1F1F;}
               rect.text             {fill: none; stroke: none;}
               polygon.regexp        {fill: #EFEFEF; stroke: #1F1F1F;}

            </style>
         </defs>

         <polygon points="9 17 1 13 1 21"/>
         <polygon points="17 17 9 13 9 21"/>
         <rect x="31" y="3" width="56" height="32" rx="10"/>
         <rect x="29" y="1" width="56" height="32" class="terminal" rx="10"/>
         <text class="terminal" x="39" y="21">new(</text><a xmlns:xlink="http://www.w3.org/1999/xlink" xlink:href="#offset" xlink:title="offset">
            <rect x="107" y="3" width="56" height="32"/>
            <rect x="105" y="1" width="56" height="32" class="nonterminal"/>
            <text class="nonterminal" x="115" y="21">offset</text></a><rect x="183" y="3" width="24" height="32" rx="10"/>
         <rect x="181" y="1" width="24" height="32" class="terminal" rx="10"/>
         <text class="terminal" x="191" y="21">,</text><a xmlns:xlink="http://www.w3.org/1999/xlink" xlink:href="#chunks" xlink:title="chunks">
            <rect x="227" y="3" width="64" height="32"/>
            <rect x="225" y="1" width="64" height="32" class="nonterminal"/>
            <text class="nonterminal" x="235" y="21">chunks</text></a><rect x="311" y="3" width="24" height="32" rx="10"/>
         <rect x="309" y="1" width="24" height="32" class="terminal" rx="10"/>
         <text class="terminal" x="319" y="21">,</text><a xmlns:xlink="http://www.w3.org/1999/xlink" xlink:href="#table_size" xlink:title="table_size">
            <rect x="375" y="35" width="86" height="32"/>
            <rect x="373" y="33" width="86" height="32" class="nonterminal"/>
            <text class="nonterminal" x="383" y="53">table_size</text></a><rect x="501" y="3" width="24" height="32" rx="10"/>
         <rect x="499" y="1" width="24" height="32" class="terminal" rx="10"/>
         <text class="terminal" x="509" y="21">,</text><a xmlns:xlink="http://www.w3.org/1999/xlink" xlink:href="#chunk_size" xlink:title="chunk_size">
            <rect x="565" y="35" width="90" height="32"/>
            <rect x="563" y="33" width="90" height="32" class="nonterminal"/>
            <text class="nonterminal" x="573" y="53">chunk_size</text></a><rect x="695" y="3" width="24" height="32" rx="10"/>
         <rect x="693" y="1" width="24" height="32" class="terminal" rx="10"/>
         <text class="terminal" x="703" y="21">,</text><a xmlns:xlink="http://www.w3.org/1999/xlink" xlink:href="#width" xlink:title="width">
            <rect x="759" y="35" width="54" height="32"/>
            <rect x="757" y="33" width="54" height="32" class="nonterminal"/>
            <text class="nonterminal" x="767" y="53">width</text></a><rect x="853" y="3" width="24" height="32" rx="10"/>
         <rect x="851" y="1" width="24" height="32" class="terminal" rx="10"/>
         <text class="terminal" x="861" y="21">,</text><a xmlns:xlink="http://www.w3.org/1999/xlink" xlink:href="#big_values" xlink:title="big_values">
            <rect x="717" y="133" width="88" height="32"/>
            <rect x="715" y="131" width="88" height="32" class="nonterminal"/>
            <text class="nonterminal" x="725" y="151">big_values</text></a><rect x="845" y="101" width="26" height="32" rx="10"/>
         <rect x="843" y="99" width="26" height="32" class="terminal" rx="10"/>
         <text class="terminal" x="853" y="119">)</text>
         <path class="line" d="m17 17 h2 m0 0 h10 m56 0 h10 m0 0 h10 m56 0 h10 m0 0 h10 m24 0 h10 m0 0 h10 m64 0 h10 m0 0 h10 m24 0 h10 m20 0 h10 m0 0 h96 m-126 0 h20 m106 0 h20 m-146 0 q10 0 10 10 m126 0 q0 -10 10 -10 m-136 10 v12 m126 0 v-12 m-126 12 q0 10 10 10 m106 0 q10 0 10 -10 m-116 10 h10 m86 0 h10 m20 -32 h10 m24 0 h10 m20 0 h10 m0 0 h100 m-130 0 h20 m110 0 h20 m-150 0 q10 0 10 10 m130 0 q0 -10 10 -10 m-140 10 v12 m130 0 v-12 m-130 12 q0 10 10 10 m110 0 q10 0 10 -10 m-120 10 h10 m90 0 h10 m20 -32 h10 m24 0 h10 m20 0 h10 m0 0 h64 m-94 0 h20 m74 0 h20 m-114 0 q10 0 10 10 m94 0 q0 -10 10 -10 m-104 10 v12 m94 0 v-12 m-94 12 q0 10 10 10 m74 0 q10 0 10 -10 m-84 10 h10 m54 0 h10 m20 -32 h10 m24 0 h10 m2 0 l2 0 m2 0 l2 0 m2 0 l2 0 m-224 98 l2 0 m2 0 l2 0 m2 0 l2 0 m22 0 h10 m0 0 h98 m-128 0 h20 m108 0 h20 m-148 0 q10 0 10 10 m128 0 q0 -10 10 -10 m-138 10 v12 m128 0 v-12 m-128 12 q0 10 10 10 m108 0 q10 0 10 -10 m-118 10 h10 m88 0 h10 m20 -32 h10 m26 0 h10 m3 0 h-3"/>
         <polygon points="889 115 897 111 897 119"/>
         <polygon points="889 115 881 111 881 119"/>
</svg>