<svg xmlns="http://www.w3.org/2000/svg" width="469" height="69">
         <defs>
            <style type="text/css">
               @namespace "http://www.w3.org/2000/svg";
               .line                 {fill: none; stroke: #1F1F1F;}
               .bold-line            {stroke: #0A0A0A; shape-rendering: crispEdges; stroke-width:
               2; }
               .thin-line            {stroke: #0F0F0F; shape-rendering: crispEdges}
               .filled               {fill: #1F1F1F; stroke: none;}
               text.terminal         {font-family: Verdana, Sans-serif;
               font-size: 12px;
               fill: #0A0A0A;
               font-weight: bold;
               }
               text.nonterminal      {font-family: Verdana, Sans-serif; font-style: italic;
               font-size: 12px;
               fill: #0D0D0D;
               }
               text.regexp           {font-family: Verdana, Sans-serif;
               font-size: 12px;
               fill: #0F0F0F;
               }
               rect, circle, polygon {fill: #1F1F1F; stroke: #1F1F1F;}
               rect.terminal         {fill: #CCCCCC; stroke: #1F1F1F;}
               rect.nonterminal      {fill: #E3E3E3; stroke: #1F1F1F;}
               rect.text             {fill: none; stroke: none;}
               polygon.regexp        {fill: #EFEFEF; stroke: #1F1F1F;}

            </style>
         </defs>

         <polygon points="9 17 1 13 1 21"/>
         <polygon points="17 17 9 13 9 21"/>
         <rect x="31" y="3" width="92" height="32" rx="10"/>
         <rect x="29" y="1" width="92" height="32" class="terminal" rx="10"/>
         <text class="terminal" x="39" y="21">compress(</text><a xmlns:xlink="http://www.w3.org/1999/xlink" xlink:href="#buffer" xlink:title="buffer">
            <rect x="143" y="3" width="58" height="32"/>
            <rect x="141" y="1" width="58" height="32" class="nonterminal"/>
            <text class="nonterminal" x="151" y="21">buffer</text></a><rect x="241" y="35" width="24" height="32" rx="10"/>
         <rect x="239" y="33" width="24" height="32" class="terminal" rx="10"/>
         <text class="terminal" x="249" y="53">,</text><a xmlns:xlink="http://www.w3.org/1999/xlink" xlink:href="#chunk_size" xlink:title="chunk_size">
            <rect x="285" y="35" width="90" height="32"/>
            <rect x="283" y="33" width="90" height="32" class="nonterminal"/>
            <text class="nonterminal" x="293" y="53">chunk_size</text></a><rect x="415" y="3" width="26" height="32" rx="10"/>
         <rect x="413" y="1" width="26" height="32" class="terminal" rx="10"/>
         <text class="terminal" x="423" y="21">)</text>
         <path class="line" d="m17 17 h2 m0 0 h10 m92 0 h10 m0 0 h10 m58 0 h10 m20 0 h10 m0 0 h144 m-174 0 h20 m154 0 h20 m-194 0 q10 0 10 10 m174 0 q0 -10 10 -10 m-184 10 v12 m174 0 v-12 m-174 12 q0 10 10 10 m154 0 q10 0 10 -10 m-164 10 h10 m24 0 h10 m0 0 h10 m90 0 h10 m20 -32 h10 m26 0 h10 m3 0 h-3"/>
         <polygon points="459 17 467 13 467 21"/>
         <polygon points="459 17 451 13 451 21"/>
</svg>