<svg xmlns="http://www.w3.org/2000/svg" width="461" height="213">
         <defs>
            <style type="text/css">
               @namespace "http://www.w3.org/2000/svg";
               .line                 {fill: none; stroke: #1F1F1F;}
               .bold-line            {stroke: #0A0A0A; shape-rendering: crispEdges; stroke-width:
               2; }
               .thin-line            {stroke: #0F0F0F; shape-rendering: crispEdges}
               .filled               {fill: #1F1F1F; stroke: none;}
               text.terminal         {font-family: Verdana, Sans-serif;
               font-size: 12px;
               fill: #0A0A0A;
               font-weight: bold;
               }
               text.nonterminal      {font-family: Verdana, Sans-serif; font-style: italic;
               font-size: 12px;
               fill: #0D0D0D;
               }
               text.regexp           {font-family: Verdana, Sans-serif;
               font-size: 12px;
               fill: #0F0F0F;
               }
               rect, circle, polygon {fill: #1F1F1F; stroke: #1F1F1F;}
               rect.terminal         {fill: #CCCCCC; stroke: #1F1F1F;}
               rect.nonterminal      {fill: #E3E3E3; stroke: #1F1F1F;}
               rect.text             {fill: none; stroke: none;}
               polygon.regexp        {fill: #EFEFEF; stroke: #1F1F1F;}

            </style>
         </defs>

         <polygon points="9 17 1 13 1 21"/>
         <polygon points="17 17 9 13 9 21"/>
         <rect x="31" y="3" width="84" height="32" rx="10"/>
         <rect x="29" y="1" width="84" height="32" class="terminal" rx="10"/>
         <text class="terminal" x="39" y="21">OPTIONS</text>
         <rect x="135" y="3" width="126" height="32" rx="10"/>
         <rect x="133" y="1" width="126" height="32" class="terminal" rx="10"/>
         <text class="terminal" x="143" y="21">DEFAULTSRING</text>
         <rect x="301" y="3" width="54" height="32" rx="10"/>
         <rect x="299" y="1" width="54" height="32" class="terminal" rx="10"/>
         <text class="terminal" x="309" y="21">TEXT</text>
         <rect x="301" y="47" width="104" height="32" rx="10"/>
         <rect x="299" y="45" width="104" height="32" class="terminal" rx="10"/>
         <text class="terminal" x="309" y="65">GRAPHEMES</text>
         <rect x="301" y="91" width="112" height="32" rx="10"/>
         <rect x="299" y="89" width="112" height="32" class="terminal" rx="10"/>
         <text class="terminal" x="309" y="109">CODEPOINTS</text>
         <rect x="301" y="135" width="62" height="32" rx="10"/>
         <rect x="299" y="133" width="62" height="32" class="terminal" rx="10"/>
         <text class="terminal" x="309" y="153">BYTES</text>
         <rect x="301" y="179" width="58" height="32" rx="10"/>
         <rect x="299" y="177" width="58" height="32" class="terminal" rx="10"/>
         <text class="terminal" x="309" y="197">NONE</text>
         <path class="line" d="m17 17 h2 m0 0 h10 m84 0 h10 m0 0 h10 m126 0 h10 m20 0 h10 m54 0 h10 m0 0 h58 m-152 0 h20 m132 0 h20 m-172 0 q10 0 10 10 m152 0 q0 -10 10 -10 m-162 10 v24 m152 0 v-24 m-152 24 q0 10 10 10 m132 0 q10 0 10 -10 m-142 10 h10 m104 0 h10 m0 0 h8 m-142 -10 v20 m152 0 v-20 m-152 20 v24 m152 0 v-24 m-152 24 q0 10 10 10 m132 0 q10 0 10 -10 m-142 10 h10 m112 0 h10 m-142 -10 v20 m152 0 v-20 m-152 20 v24 m152 0 v-24 m-152 24 q0 10 10 10 m132 0 q10 0 10 -10 m-142 10 h10 m62 0 h10 m0 0 h50 m-142 -10 v20 m152 0 v-20 m-152 20 v24 m152 0 v-24 m-152 24 q0 10 10 10 m132 0 q10 0 10 -10 m-142 10 h10 m58 0 h10 m0 0 h54 m23 -176 h-3"/>
         <polygon points="451 17 459 13 459 21"/>
         <polygon points="451 17 443 13 443 21"/>
</svg>