<svg xmlns="http://www.w3.org/2000/svg" width="413" height="213">
         <defs>
            <style type="text/css">
               @namespace "http://www.w3.org/2000/svg";
               .line                 {fill: none; stroke: #1F1F1F;}
               .bold-line            {stroke: #0A0A0A; shape-rendering: crispEdges; stroke-width:
               2; }
               .thin-line            {stroke: #0F0F0F; shape-rendering: crispEdges}
               .filled               {fill: #1F1F1F; stroke: none;}
               text.terminal         {font-family: Verdana, Sans-serif;
               font-size: 12px;
               fill: #0A0A0A;
               font-weight: bold;
               }
               text.nonterminal      {font-family: Verdana, Sans-serif; font-style: italic;
               font-size: 12px;
               fill: #0D0D0D;
               }
               text.regexp           {font-family: Verdana, Sans-serif;
               font-size: 12px;
               fill: #0F0F0F;
               }
               rect, circle, polygon {fill: #1F1F1F; stroke: #1F1F1F;}
               rect.terminal         {fill: #CCCCCC; stroke: #1F1F1F;}
               rect.nonterminal      {fill: #E3E3E3; stroke: #1F1F1F;}
               rect.text             {fill: none; stroke: none;}
               polygon.regexp        {fill: #EFEFEF; stroke: #1F1F1F;}

            </style>
         </defs>

         <polygon points="9 17 1 13 1 21"/>
         <polygon points="17 17 9 13 9 21"/>
         <rect x="31" y="3" width="84" height="32" rx="10"/>
         <rect x="29" y="1" width="84" height="32" class="terminal" rx="10"/>
         <text class="terminal" x="39" y="21">OPTIONS</text>
         <rect x="135" y="3" width="102" height="32" rx="10"/>
         <rect x="133" y="1" width="102" height="32" class="terminal" rx="10"/>
         <text class="terminal" x="143" y="21">COERCIONS</text>
         <rect x="277" y="3" width="88" height="32" rx="10"/>
         <rect x="275" y="1" width="88" height="32" class="terminal" rx="10"/>
         <text class="terminal" x="285" y="21">PROMOTE</text>
         <rect x="277" y="47" width="76" height="32" rx="10"/>
         <rect x="275" y="45" width="76" height="32" class="terminal" rx="10"/>
         <text class="terminal" x="285" y="65">DEMOTE</text>
         <rect x="277" y="91" width="52" height="32" rx="10"/>
         <rect x="275" y="89" width="52" height="32" class="terminal" rx="10"/>
         <text class="terminal" x="285" y="109">LEFT</text>
         <rect x="277" y="135" width="64" height="32" rx="10"/>
         <rect x="275" y="133" width="64" height="32" class="terminal" rx="10"/>
         <text class="terminal" x="285" y="153">RIGHT</text>
         <rect x="277" y="179" width="58" height="32" rx="10"/>
         <rect x="275" y="177" width="58" height="32" class="terminal" rx="10"/>
         <text class="terminal" x="285" y="197">NONE</text>
         <path class="line" d="m17 17 h2 m0 0 h10 m84 0 h10 m0 0 h10 m102 0 h10 m20 0 h10 m88 0 h10 m-128 0 h20 m108 0 h20 m-148 0 q10 0 10 10 m128 0 q0 -10 10 -10 m-138 10 v24 m128 0 v-24 m-128 24 q0 10 10 10 m108 0 q10 0 10 -10 m-118 10 h10 m76 0 h10 m0 0 h12 m-118 -10 v20 m128 0 v-20 m-128 20 v24 m128 0 v-24 m-128 24 q0 10 10 10 m108 0 q10 0 10 -10 m-118 10 h10 m52 0 h10 m0 0 h36 m-118 -10 v20 m128 0 v-20 m-128 20 v24 m128 0 v-24 m-128 24 q0 10 10 10 m108 0 q10 0 10 -10 m-118 10 h10 m64 0 h10 m0 0 h24 m-118 -10 v20 m128 0 v-20 m-128 20 v24 m128 0 v-24 m-128 24 q0 10 10 10 m108 0 q10 0 10 -10 m-118 10 h10 m58 0 h10 m0 0 h30 m23 -176 h-3"/>
         <polygon points="403 17 411 13 411 21"/>
         <polygon points="403 17 395 13 395 21"/>
</svg>